<?xml version="1.0" encoding="utf-8"?>
<!-- Generator: Adobe Illustrator 21.1.0, SVG Export Plug-In . SVG Version: 6.00 Build 0)  -->
<svg version="1.1" id="Layer_1" xmlns="http://www.w3.org/2000/svg" xmlns:xlink="http://www.w3.org/1999/xlink" x="0px" y="0px"
	 viewBox="0 0 389 112" style="enable-background:new 0 0 389 112;" xml:space="preserve">
<style type="text/css">
	.st0{opacity:0.3;fill:#FC2D2D;}
	.st1{fill:#333333;stroke:#333333;stroke-width:0.75;stroke-miterlimit:10;}
	.st2{fill:#333333;}
	.st3{opacity:0.67;fill:#FC3D3D;}
	.st4{fill:#333333;stroke:#FC4242;stroke-width:0.75;stroke-miterlimit:10;}
	.st5{fill:#FF3E3E;}
</style>
<circle class="st0" cx="191.6" cy="72.5" r="33"/>
<g>
	<g>
		<g>
			<g>
				<path class="st1" d="M383.8,85.3c-0.2-0.2-0.5-0.3-0.7-0.4l-1.1-7.4c-0.8-5.7-5.8-10-11.7-10c0,0,0.2,0,0.2,0
					c-8.2,0.1-20.4-0.7-32.8-4.6c0.3-0.9,0-1.9-0.7-2.5l-23.4-18.7l-7-35.2c-0.2-1.1-1.1-1.8-2.2-1.8c-0.3,0-8.5,0.1-13.9,8.2
					c-0.1,0.2-0.2,0.4-0.3,0.6c-1-0.1-2,0-3,0.3c-5.1,1.4-21.4,6.9-21.4,6.9c-1.7,0.6-3.5,0.9-5.4,0.9c-2,1.1-4.8,2.3-8.3,2.5
					c-0.7,0-1.4,0-2,0c-0.2,0-0.4,0.1-0.5,0.1c-3.1,0.9-4.5,4.9-5,6.5v48.5c-0.7,0.5-1.5,1.3-1.9,2.5c-0.2,0.6-0.3,1.2-0.1,1.8v16.5
					c-0.2,2.6,1.9,4.6,4.4,4.6h38c2.6,0,4.6-2.1,4.6-4.6v-1c2.6,0.4,5.1,0.8,7.6,1.1c15.5,2.3,30.1,4.5,47.8,4.5
					c19.3,0,32.5-3,37.2-4.3c2-0.5,3.4-2.3,3.4-4.4v-6.9C385.6,87.5,384.9,86.2,383.8,85.3z M370.3,71.5
					C370.3,71.5,370.3,71.5,370.3,71.5c3.6,0,6.7,2.7,7.2,6.3l1,6.8c-6.1,1.5-17.6,3.6-33.5,3.6c-17.2,0-31.6-2.2-46.9-4.5
					c-1.5-0.2-3.1-0.5-4.7-0.7c4.6-4.2,14.7-10.8,31.2-7.8c2.8,0.5,5.8-0.8,7.3-3.3l3.3-5.5C348.5,70.7,361.6,71.6,370.3,71.5z
					 M302.6,9.2l5.6,27.8l-6.6-5.2l-2.9-11.4c-0.6-2.4-2-4.4-4.1-5.7C297.3,11,300.6,9.7,302.6,9.2z M253.5,25.5h6.1
					c2.3,0,4.6-0.4,6.8-1.1l15.8-5.3l1.9,9.6c0.3,1.4,0.2,2.8-0.3,4.1c-1.2,2.9-3.8,4.6-6.7,4.6h-16.7c-4.7,0-8.9,2-11.9,5.2V30.4
					C248.6,27.7,250.8,25.5,253.5,25.5z M248.6,54.6c0-6.7,5.4-12.1,12.1-12.1l18.8,0c0.3,0,0.6,0,0.8-0.1c6.8-2,10.2-8.1,9-14
					L287.2,18l1.2-0.3c0.1,0,0.3,0,0.4,0c2.5,0.1,4.4,1.7,4.9,3.8l3.2,12.7c0,0.1,0.1,0.2,0.2,0.3l9.1,7.3l-4.7,4.7
					c-0.1,0.1-0.2,0.3-0.2,0.4c0,1.9,1.2,2.8,2.4,2.8c0.6,0,1.1-0.2,1.6-0.7l4.4-4.4l2.7,2.1l-4.5,4.5c-0.1,0.1-0.2,0.3-0.2,0.4
					c0,1.9,1.2,2.8,2.4,2.8c0.6,0,1.1-0.2,1.6-0.7l4.3-4.3l2.7,2.1l-4.3,4.3c-0.1,0.1-0.2,0.3-0.2,0.4c0,1.9,1.2,2.8,2.4,2.8
					c0.6,0,1.1-0.2,1.6-0.7l4.1-4.1l2.7,2.1l-4.1,4.1c-0.1,0.1-0.2,0.3-0.2,0.4c0,1.9,1.2,2.8,2.4,2.8c0.6,0,1.1-0.2,1.6-0.7
					l3.9-3.9l3.5,2.8l-4.4,7.3c-0.5,0.9-1.6,1.4-2.6,1.2c-5.6-1-24.9-3.3-37.5,11.3c-11.8-1.7-24.3-3.2-38.8-3.4L248.6,54.6
					L248.6,54.6z M380.6,96.2c0,0.1,0,0.1-0.1,0.1c-4.6,1.3-17.1,4.2-35.7,4.2c-17.1,0-31.5-2.2-46.6-4.6c-3.3-0.5-6.7-1-10.1-1.5
					c-0.1,0-0.2,0-0.3,0c-0.5,0-1,0.2-1.5,0.5c-0.5,0.4-0.8,1-0.8,1.7v3.7c0,0.1-0.1,0.1-0.1,0.1h-38.7c-0.1,0-0.1-0.1-0.1-0.1V83.6
					c0,0,0-0.1,0-0.1c0,0,0.1,0,0.1,0c19.4,0.2,35.2,2.6,50.4,5c15.4,2.4,29.9,4.6,47.5,4.6c17.5,0,29.9-2.5,35.8-4c0,0,0.1,0,0.1,0
					c0.1,0,0.1,0.1,0.1,0.1L380.6,96.2L380.6,96.2z"/>
			</g>
		</g>
	</g>
</g>
<path class="st2" d="M222.9,54.4V41.1h12.9V23.1h15.6v18.1h17.2c-4.7,0.1-9.3,0.2-14,0.4c-1.4,1.3-3.4,3.6-5,7c-1.7,3.7-2,7.1-2,9
	c-0.7,8.3-1.3,16.7-2,25c-2.1,14.5-0.3,18.9,2,20c1.7,0.8,3.3-0.3,8-1c4.9-0.7,9.1-0.4,12,0c0.3,0.5,0.6,1,1,1.5
	c-1.6,0.8-3.7,1.3-6,1.6c-1.5,0.2-2.8,0.4-6.3,0.5c-6.8,0.2-10.2,0.3-11.6-0.6c-2.5-1.5-4.4-4.2-4.8-4.9c-0.7-1-1-1.7-1.2-2.1
	c-0.8-1.9-0.9-3.6-1-5c-0.1-3.5-0.1-6.7,0-9c-0.6-9.7-1.2-19.4-1.8-29.1H222.9z"/>
<path class="st2" d="M4.1,11.5H40c3.5,0,6.9,0.4,10.3,1.2c3.4,0.8,6.4,2.2,9,4c2.6,1.9,4.8,4.3,6.4,7.2c1.6,2.9,2.5,6.5,2.5,10.7
	c0,5.2-1.5,9.5-4.4,12.9c-2.9,3.4-6.8,5.8-11.6,7.3V55c2.9,0.3,5.5,1.2,8,2.4c2.5,1.3,4.6,2.9,6.3,4.8c1.7,2,3.1,4.2,4.1,6.8
	c1,2.6,1.5,5.3,1.5,8.3c0,5-1,9.2-3,12.5c-2,3.3-4.6,6-7.9,8.1c-3.2,2-7,3.5-11.2,4.4c-4.2,0.9-8.5,1.3-12.8,1.3H4.1V11.5z
	 M20.5,48.9h15c5.5,0,9.6-1.1,12.3-3.2c2.7-2.1,4.1-4.9,4.1-8.4c0-4-1.4-7-4.2-8.9c-2.8-2-7.3-2.9-13.6-2.9H20.5V48.9z M20.5,89.5
	h15.1c2.1,0,4.3-0.1,6.7-0.4c2.4-0.3,4.6-0.9,6.6-1.8c2-1,3.6-2.3,4.9-4.1c1.3-1.8,1.9-4.2,1.9-7.2c0-4.9-1.6-8.2-4.7-10.1
	c-3.2-1.9-8.1-2.9-14.8-2.9H20.5V89.5z"/>
<path class="st2" d="M83.8,72.3c0-4.9,0.9-9.4,2.7-13.5c1.8-4,4.2-7.5,7.2-10.3c3-2.9,6.6-5.1,10.8-6.6c4.2-1.6,8.6-2.3,13.3-2.3
	c4.7,0,9.1,0.8,13.3,2.3c4.2,1.6,7.8,3.8,10.8,6.6c3,2.9,5.4,6.3,7.2,10.3c1.8,4,2.7,8.5,2.7,13.5c0,4.9-0.9,9.4-2.7,13.5
	c-1.8,4-4.2,7.5-7.2,10.3c-3,2.9-6.6,5.1-10.8,6.6c-4.2,1.6-8.6,2.3-13.3,2.3c-4.7,0-9.1-0.8-13.3-2.3c-4.2-1.6-7.8-3.8-10.8-6.6
	c-3-2.9-5.4-6.3-7.2-10.3C84.7,81.8,83.8,77.3,83.8,72.3z M99.4,72.3c0,2.4,0.4,4.8,1.2,7c0.8,2.3,2,4.2,3.6,6
	c1.6,1.7,3.5,3.1,5.8,4.2c2.3,1,4.8,1.6,7.7,1.6s5.4-0.5,7.7-1.6c2.3-1,4.2-2.4,5.8-4.2c1.6-1.7,2.8-3.7,3.6-6
	c0.8-2.3,1.2-4.6,1.2-7c0-2.4-0.4-4.8-1.2-7c-0.8-2.3-2-4.2-3.6-6c-1.6-1.7-3.5-3.1-5.8-4.2c-2.3-1-4.8-1.6-7.7-1.6
	s-5.4,0.5-7.7,1.6c-2.3,1-4.2,2.4-5.8,4.2c-1.6,1.7-2.8,3.7-3.6,6C99.8,67.6,99.4,69.9,99.4,72.3z"/>
<circle class="st3" cx="191.6" cy="72.5" r="23"/>
<path class="st4" d="M252.1,24"/>
<rect x="235.6" y="52.5" class="st2" width="4" height="52"/>
<path class="st2" d="M235.6,98.5c1.2-0.3,3.9-0.9,7,0c5.3,1.6,7.6,6.2,8,7c-5,0-10,0-15,0V98.5z"/>
<path class="st2" d="M262.5,25.8c-3.3,1-7.4,2-12.1,2.6c-5.3,0.6-10,0.5-13.8,0.1c0-1.7,0-3.3,0-5c3.8,0.4,9,0.5,15.1-0.4
	c0.9-0.1,2.7-0.5,8.4-1.9c3.8-0.9,9-2.3,15.1-4C270.9,20,266.7,22.9,262.5,25.8z"/>
<ellipse transform="matrix(0.9634 -0.268 0.268 0.9634 -12.4195 54.0318)" class="st5" cx="191.7" cy="72.5" rx="17" ry="17"/>
</svg>
